<mxfile host="app.diagrams.net" modified="2021-08-02T21:13:50.652Z" agent="5.0 (Windows NT 10.0; Win64; x64) AppleWebKit/537.36 (KHTML, like Gecko) Chrome/92.0.4515.107 Safari/537.36" etag="LY7SUcB__p5N4ikUlam8" version="14.9.3" type="github" pages="2">
  <diagram id="wFV8sOdt-3NXnZTaCPz1" name="Page-1">
    <mxGraphModel dx="716" dy="377" grid="1" gridSize="10" guides="1" tooltips="1" connect="1" arrows="1" fold="1" page="1" pageScale="1" pageWidth="850" pageHeight="1100" math="0" shadow="0">
      <root>
        <mxCell id="0" />
        <mxCell id="1" parent="0" />
        <mxCell id="HwzwYHC0HmzuA3Eh458f-1" value="Manager" style="swimlane;fontStyle=1;align=center;verticalAlign=top;childLayout=stackLayout;horizontal=1;startSize=26;horizontalStack=0;resizeParent=1;resizeParentMax=0;resizeLast=0;collapsible=1;marginBottom=0;" parent="1" vertex="1">
          <mxGeometry x="350" y="100" width="210" height="230" as="geometry" />
        </mxCell>
        <mxCell id="HwzwYHC0HmzuA3Eh458f-2" value="- manager_id: int&#xa;- manager_first_name: str &#xa;- manager_last_name: str&#xa;- manager_full_name: str&#xa;- manager_phone_number: int" style="text;strokeColor=none;fillColor=none;align=left;verticalAlign=top;spacingLeft=4;spacingRight=4;overflow=hidden;rotatable=0;points=[[0,0.5],[1,0.5]];portConstraint=eastwest;" parent="HwzwYHC0HmzuA3Eh458f-1" vertex="1">
          <mxGeometry y="26" width="210" height="104" as="geometry" />
        </mxCell>
        <mxCell id="HwzwYHC0HmzuA3Eh458f-4" value="+ get_manager_first_name()&#xa;+ get_manager_last_name()&#xa;+ get_manager_full_name()&#xa;+ get_manager_phone_number()&#xa;- set_price(get_customer_id())&#xa;+ get_price(get_customer_id())" style="text;strokeColor=none;fillColor=none;align=left;verticalAlign=top;spacingLeft=4;spacingRight=4;overflow=hidden;rotatable=0;points=[[0,0.5],[1,0.5]];portConstraint=eastwest;" parent="HwzwYHC0HmzuA3Eh458f-1" vertex="1">
          <mxGeometry y="130" width="210" height="100" as="geometry" />
        </mxCell>
        <mxCell id="HwzwYHC0HmzuA3Eh458f-6" value="*" style="text;html=1;align=center;verticalAlign=middle;resizable=0;points=[];autosize=1;strokeColor=none;" parent="1" vertex="1">
          <mxGeometry x="220" y="294" width="20" height="20" as="geometry" />
        </mxCell>
        <mxCell id="Gjrh0X_BcbYCXjCByWJd-17" value="Customer" style="swimlane;fontStyle=1;align=center;verticalAlign=top;childLayout=stackLayout;horizontal=1;startSize=26;horizontalStack=0;resizeParent=1;resizeParentMax=0;resizeLast=0;collapsible=1;marginBottom=0;" vertex="1" parent="1">
          <mxGeometry x="699" y="100" width="190" height="510" as="geometry" />
        </mxCell>
        <mxCell id="Gjrh0X_BcbYCXjCByWJd-20" value="- customer_id: int&#xa;- customer_first_name: str &#xa;- customer_last_name: str&#xa;- customer_phone_number: int&#xa;- customer_addres: str&#xa;- loading_date: str&#xa;- loading_addres: str&#xa;- handling_date: str&#xa;- handling_addres: str&#xa;- item_id: int&#xa;- item_name: str &#xa;- item_description: str&#xa;- item_demiensions: int&#xa;- item_weight:int&#xa;- method_of_payment: str&#xa;" style="text;strokeColor=none;fillColor=none;align=left;verticalAlign=top;spacingLeft=4;spacingRight=4;overflow=hidden;rotatable=0;points=[[0,0.5],[1,0.5]];portConstraint=eastwest;" vertex="1" parent="Gjrh0X_BcbYCXjCByWJd-17">
          <mxGeometry y="26" width="190" height="244" as="geometry" />
        </mxCell>
        <mxCell id="Gjrh0X_BcbYCXjCByWJd-18" value="+ get_customer_id()&#xa;+ get_customer_first_name()&#xa;+ get_customer_last_name()&#xa;+ get_customer_phone_number()&#xa;+ get_customer_addres()&#xa;+ get_loading_date()&#xa;+ get_loading_addres()&#xa;+ get_handling_date()&#xa;+ get_handling_addres()&#xa;+ get_item_id()&#xa;+ get_item_name() &#xa;+ get_item_description()&#xa;+ get_item_demiensions()&#xa;+ get_item_weight()&#xa;+ get_method_of_payment()&#xa;" style="text;strokeColor=none;fillColor=none;align=left;verticalAlign=top;spacingLeft=4;spacingRight=4;overflow=hidden;rotatable=0;points=[[0,0.5],[1,0.5]];portConstraint=eastwest;" vertex="1" parent="Gjrh0X_BcbYCXjCByWJd-17">
          <mxGeometry y="270" width="190" height="240" as="geometry" />
        </mxCell>
        <mxCell id="Gjrh0X_BcbYCXjCByWJd-19" value="" style="line;strokeWidth=1;fillColor=none;align=left;verticalAlign=middle;spacingTop=-1;spacingLeft=3;spacingRight=3;rotatable=0;labelPosition=right;points=[];portConstraint=eastwest;" vertex="1" parent="1">
          <mxGeometry x="699" y="361" width="190" height="16" as="geometry" />
        </mxCell>
        <mxCell id="HwzwYHC0HmzuA3Eh458f-3" value="" style="line;strokeWidth=1;fillColor=none;align=left;verticalAlign=middle;spacingTop=-1;spacingLeft=3;spacingRight=3;rotatable=0;labelPosition=right;points=[];portConstraint=eastwest;" parent="1" vertex="1">
          <mxGeometry x="350" y="221" width="210" height="16" as="geometry" />
        </mxCell>
        <mxCell id="Gjrh0X_BcbYCXjCByWJd-26" style="edgeStyle=orthogonalEdgeStyle;rounded=0;orthogonalLoop=1;jettySize=auto;html=1;entryX=0.007;entryY=0.282;entryDx=0;entryDy=0;entryPerimeter=0;" edge="1" parent="1" source="HwzwYHC0HmzuA3Eh458f-4" target="Gjrh0X_BcbYCXjCByWJd-18">
          <mxGeometry relative="1" as="geometry" />
        </mxCell>
        <mxCell id="Gjrh0X_BcbYCXjCByWJd-27" value="*" style="text;html=1;align=center;verticalAlign=middle;resizable=0;points=[];autosize=1;strokeColor=none;" vertex="1" parent="1">
          <mxGeometry x="570" y="260" width="20" height="20" as="geometry" />
        </mxCell>
        <mxCell id="Gjrh0X_BcbYCXjCByWJd-28" value="*" style="text;html=1;align=center;verticalAlign=middle;resizable=0;points=[];autosize=1;strokeColor=none;" vertex="1" parent="1">
          <mxGeometry x="670" y="420" width="20" height="20" as="geometry" />
        </mxCell>
        <mxCell id="Gjrh0X_BcbYCXjCByWJd-29" value="Driver" style="swimlane;fontStyle=1;align=center;verticalAlign=top;childLayout=stackLayout;horizontal=1;startSize=26;horizontalStack=0;resizeParent=1;resizeParentMax=0;resizeLast=0;collapsible=1;marginBottom=0;" vertex="1" parent="1">
          <mxGeometry x="20" y="130" width="200" height="230" as="geometry" />
        </mxCell>
        <mxCell id="Gjrh0X_BcbYCXjCByWJd-30" value="- driver_id: int&#xa;- driver_first_name: str &#xa;- driver_last_name: str&#xa;- driver_full_name: str&#xa;- driver_phone_number: int&#xa;- driver_age:int&#xa;" style="text;strokeColor=none;fillColor=none;align=left;verticalAlign=top;spacingLeft=4;spacingRight=4;overflow=hidden;rotatable=0;points=[[0,0.5],[1,0.5]];portConstraint=eastwest;" vertex="1" parent="Gjrh0X_BcbYCXjCByWJd-29">
          <mxGeometry y="26" width="200" height="104" as="geometry" />
        </mxCell>
        <mxCell id="Gjrh0X_BcbYCXjCByWJd-31" value="" style="line;strokeWidth=1;fillColor=none;align=left;verticalAlign=middle;spacingTop=-1;spacingLeft=3;spacingRight=3;rotatable=0;labelPosition=right;points=[];portConstraint=eastwest;" vertex="1" parent="Gjrh0X_BcbYCXjCByWJd-29">
          <mxGeometry y="130" width="200" height="8" as="geometry" />
        </mxCell>
        <mxCell id="Gjrh0X_BcbYCXjCByWJd-32" value="+ get_driver_first_name()&#xa;+ get_driver_last_name()&#xa;+ get_driver_full_name()&#xa;+ get_driver_phone_number()&#xa;+ get_driver_age()&#xa;" style="text;strokeColor=none;fillColor=none;align=left;verticalAlign=top;spacingLeft=4;spacingRight=4;overflow=hidden;rotatable=0;points=[[0,0.5],[1,0.5]];portConstraint=eastwest;" vertex="1" parent="Gjrh0X_BcbYCXjCByWJd-29">
          <mxGeometry y="138" width="200" height="92" as="geometry" />
        </mxCell>
        <mxCell id="Gjrh0X_BcbYCXjCByWJd-34" value="*" style="text;html=1;align=center;verticalAlign=middle;resizable=0;points=[];autosize=1;strokeColor=none;" vertex="1" parent="1">
          <mxGeometry x="320" y="260" width="20" height="20" as="geometry" />
        </mxCell>
        <mxCell id="Gjrh0X_BcbYCXjCByWJd-43" style="edgeStyle=orthogonalEdgeStyle;rounded=0;orthogonalLoop=1;jettySize=auto;html=1;exitX=1;exitY=0.75;exitDx=0;exitDy=0;entryX=0.533;entryY=0.995;entryDx=0;entryDy=0;entryPerimeter=0;" edge="1" parent="1" source="Gjrh0X_BcbYCXjCByWJd-35" target="HwzwYHC0HmzuA3Eh458f-4">
          <mxGeometry relative="1" as="geometry" />
        </mxCell>
        <mxCell id="Gjrh0X_BcbYCXjCByWJd-46" style="edgeStyle=orthogonalEdgeStyle;rounded=0;orthogonalLoop=1;jettySize=auto;html=1;exitX=0.5;exitY=0;exitDx=0;exitDy=0;" edge="1" parent="1" source="Gjrh0X_BcbYCXjCByWJd-35">
          <mxGeometry relative="1" as="geometry">
            <mxPoint x="120" y="361" as="targetPoint" />
            <Array as="points">
              <mxPoint x="120" y="361" />
            </Array>
          </mxGeometry>
        </mxCell>
        <mxCell id="Gjrh0X_BcbYCXjCByWJd-35" value="Truck" style="swimlane;fontStyle=1;align=center;verticalAlign=top;childLayout=stackLayout;horizontal=1;startSize=26;horizontalStack=0;resizeParent=1;resizeParentMax=0;resizeLast=0;collapsible=1;marginBottom=0;" vertex="1" parent="1">
          <mxGeometry x="20" y="521" width="200" height="140" as="geometry" />
        </mxCell>
        <mxCell id="Gjrh0X_BcbYCXjCByWJd-36" value="- truck_volume: int&#xa;- truck_laod_type: int" style="text;strokeColor=none;fillColor=none;align=left;verticalAlign=top;spacingLeft=4;spacingRight=4;overflow=hidden;rotatable=0;points=[[0,0.5],[1,0.5]];portConstraint=eastwest;" vertex="1" parent="Gjrh0X_BcbYCXjCByWJd-35">
          <mxGeometry y="26" width="200" height="54" as="geometry" />
        </mxCell>
        <mxCell id="Gjrh0X_BcbYCXjCByWJd-37" value="" style="line;strokeWidth=1;fillColor=none;align=left;verticalAlign=middle;spacingTop=-1;spacingLeft=3;spacingRight=3;rotatable=0;labelPosition=right;points=[];portConstraint=eastwest;" vertex="1" parent="Gjrh0X_BcbYCXjCByWJd-35">
          <mxGeometry y="80" width="200" height="8" as="geometry" />
        </mxCell>
        <mxCell id="Gjrh0X_BcbYCXjCByWJd-38" value="+ get_truck_volume()&#xa;+get_truck_load()" style="text;strokeColor=none;fillColor=none;align=left;verticalAlign=top;spacingLeft=4;spacingRight=4;overflow=hidden;rotatable=0;points=[[0,0.5],[1,0.5]];portConstraint=eastwest;" vertex="1" parent="Gjrh0X_BcbYCXjCByWJd-35">
          <mxGeometry y="88" width="200" height="52" as="geometry" />
        </mxCell>
        <mxCell id="Gjrh0X_BcbYCXjCByWJd-41" style="edgeStyle=elbowEdgeStyle;rounded=0;orthogonalLoop=1;jettySize=auto;html=1;exitX=1;exitY=0.5;exitDx=0;exitDy=0;entryX=0;entryY=0.5;entryDx=0;entryDy=0;" edge="1" parent="1" source="Gjrh0X_BcbYCXjCByWJd-32" target="HwzwYHC0HmzuA3Eh458f-4">
          <mxGeometry relative="1" as="geometry">
            <Array as="points">
              <mxPoint x="290" y="340" />
            </Array>
          </mxGeometry>
        </mxCell>
        <mxCell id="Gjrh0X_BcbYCXjCByWJd-44" value="*" style="text;html=1;align=center;verticalAlign=middle;resizable=0;points=[];autosize=1;strokeColor=none;" vertex="1" parent="1">
          <mxGeometry x="220" y="606" width="20" height="20" as="geometry" />
        </mxCell>
        <mxCell id="Gjrh0X_BcbYCXjCByWJd-45" value="*" style="text;html=1;align=center;verticalAlign=middle;resizable=0;points=[];autosize=1;strokeColor=none;" vertex="1" parent="1">
          <mxGeometry x="440" y="330" width="20" height="20" as="geometry" />
        </mxCell>
        <mxCell id="Gjrh0X_BcbYCXjCByWJd-47" value="*" style="text;html=1;align=center;verticalAlign=middle;resizable=0;points=[];autosize=1;strokeColor=none;" vertex="1" parent="1">
          <mxGeometry x="120" y="360" width="20" height="20" as="geometry" />
        </mxCell>
        <mxCell id="Gjrh0X_BcbYCXjCByWJd-48" value="*" style="text;html=1;align=center;verticalAlign=middle;resizable=0;points=[];autosize=1;strokeColor=none;" vertex="1" parent="1">
          <mxGeometry x="120" y="501" width="20" height="20" as="geometry" />
        </mxCell>
      </root>
    </mxGraphModel>
  </diagram>
  <diagram id="j5Gr8K-GwS-m1fSuGC4W" name="Page-2">
    <mxGraphModel dx="1022" dy="547" grid="1" gridSize="10" guides="1" tooltips="1" connect="1" arrows="1" fold="1" page="1" pageScale="1" pageWidth="850" pageHeight="1100" math="0" shadow="0">
      <root>
        <mxCell id="U7vAWKdcZeN8qZif3ySm-0" />
        <mxCell id="U7vAWKdcZeN8qZif3ySm-1" parent="U7vAWKdcZeN8qZif3ySm-0" />
      </root>
    </mxGraphModel>
  </diagram>
</mxfile>
